HIERARCHY
ROOT Hips
{
  OFFSET 90.7885 88.945 -76.2838
  CHANNELS 6 Xposition Yposition Zposition Zrotation Xrotation Yrotation
  JOINT LeftUpLeg
  {
    OFFSET 8.64259 1.95398 -2.38835
    CHANNELS 3 Zrotation Xrotation Yrotation
    JOINT LeftLeg
    {
      OFFSET 43.7702 0 0
      CHANNELS 3 Zrotation Xrotation Yrotation
      JOINT LeftFoot
      {
        OFFSET 40.6238 0 0
        CHANNELS 3 Zrotation Xrotation Yrotation
        JOINT LeftToeBase
        {
          OFFSET 12.7242 0 0
          CHANNELS 3 Zrotation Xrotation Yrotation
          End Site
          {
            OFFSET 0 0 0
          }
        }
      }
    }
  }
  JOINT RightUpLeg
  {
    OFFSET -8.2249 1.95398 -2.59336
    CHANNELS 3 Zrotation Xrotation Yrotation
    JOINT RightLeg
    {
      OFFSET 43.5653 0 0
      CHANNELS 3 Zrotation Xrotation Yrotation
      JOINT RightFoot
      {
        OFFSET 40.6238 0 0
        CHANNELS 3 Zrotation Xrotation Yrotation
        JOINT RightToeBase
        {
          OFFSET 12.7242 0 0
          CHANNELS 3 Zrotation Xrotation Yrotation
          End Site
          {
            OFFSET 0 0 0
          }
        }
      }
    }
  }
  JOINT Spine
  {
    OFFSET 0.165834 0.87714 6.61349
    CHANNELS 3 Zrotation Xrotation Yrotation
    JOINT Spine1
    {
      OFFSET 7.38963 1.71661e-005 0
      CHANNELS 3 Zrotation Xrotation Yrotation
      JOINT Spine2
      {
        OFFSET 11.9445 1.14441e-005 0
        CHANNELS 3 Zrotation Xrotation Yrotation
        JOINT Spine3
        {
          OFFSET 14.7254 4.19617e-005 0
          CHANNELS 3 Zrotation Xrotation Yrotation
          JOINT Spine4
          {
            OFFSET 10.9679 0 0
            CHANNELS 3 Zrotation Xrotation Yrotation
            JOINT RightShoulder
            {
              OFFSET 2.46616 -1.6653 3.69651
              CHANNELS 3 Zrotation Xrotation Yrotation
              JOINT RightArm
              {
                OFFSET 13.0012 0 0
                CHANNELS 3 Zrotation Xrotation Yrotation
                JOINT RightForeArm
                {
                  OFFSET 28.7848 1.52588e-005 0
                  CHANNELS 3 Zrotation Xrotation Yrotation
                  JOINT RightHand
                  {
                    OFFSET 26.5688 1.52588e-005 0
                    CHANNELS 3 Zrotation Xrotation Yrotation
                    End Site
                    {
                      OFFSET 0 0 0
                    }
                  }
                }
              }
            }
            JOINT LeftShoulder
            {
              OFFSET 2.38034 -1.29275 -3.7523
              CHANNELS 3 Zrotation Xrotation Yrotation
              JOINT LeftArm
              {
                OFFSET 16.3182 6.10352e-005 0
                CHANNELS 3 Zrotation Xrotation Yrotation
                JOINT LeftForeArm
                {
                  OFFSET 27.0901 0 0
                  CHANNELS 3 Zrotation Xrotation Yrotation
                  JOINT LeftHand
                  {
                    OFFSET 24.5451 1.52588e-005 0
                    CHANNELS 3 Zrotation Xrotation Yrotation
                    End Site
                    {
                      OFFSET 0 0 0
                    }
                  }
                }
              }
            }
            JOINT Neck
            {
              OFFSET 5.0226 -0.0266342 0
              CHANNELS 3 Zrotation Xrotation Yrotation
              JOINT Head
              {
                OFFSET 6.69363 2.86102e-005 0
                CHANNELS 3 Zrotation Xrotation Yrotation
                End Site
                {
                  OFFSET 0 0 0
                }
              }
            }
          }
        }
      }
    }
  }
}
MOTION
Frames:	9
Frame Time:	0.0416667
-254.34 55.9974 -234.039 117.824 -39.2844 126.563 156.252 59.3008 156.224 -123.466 21.3517 10.8941 88.9792 16.9925 1.07187 39.0746 -1.43278 0.433296 145.406 40.1424 84.3921 -114.822 -16.0804 -2.14587 102.267 -21.083 1.78177 27.5076 -0.121687 0.573295 1.62921 16.7466 -92.635 -6.60308 2.39518 -4.74642 -18.2809 2.18425 -4.84694 -40.785 3.71001 -3.80898 -20.7724 3.71002 -3.80899 73.0312 -32.5567 -136.35 -24.2589 -11.7541 -47.1176 10.3066 -45.0365 -2.9778 -44.8291 -8.69408 11.7402 -92.3598 -28.3849 68.1826 2.86425 8.31337 -77.3301 2.0129 48.6615 -7.59462 17.0933 3.07572 13.9363 33.335 -6.9838 -1.37412 -3.19485 -5.98805 -3.95548 
-254.199 55.8781 -233.968 117.898 -39.0683 126.717 155.935 59.0487 156.485 -123.666 21.0908 10.8389 89.4146 17.0853 0.721059 38.9136 -1.31784 0.256824 145.29 39.9412 84.0459 -114.954 -16.4611 -2.16769 102.319 -21.1802 1.66931 27.6552 -0.135667 0.57282 1.63807 16.7695 -92.6399 -6.64869 2.41195 -4.75174 -18.3264 2.20074 -4.853 -40.8309 3.7276 -3.80904 -20.8182 3.72759 -3.80905 72.9428 -32.742 -136.366 -24.6411 -12.0566 -47.092 9.33538 -44.3685 -4.04052 -43.6919 -8.31529 11.415 -92.1222 -27.9244 68.4453 2.31902 8.38053 -77.4617 2.07102 49.3983 -7.4472 17.0799 3.05253 13.8195 33.1505 -6.58732 -1.91127 -3.60482 -5.3923 -2.73014 
-254.2 55.6915 -233.998 117.347 -39.2141 126.514 154.726 59.3728 157.34 -123.899 20.9878 10.7868 89.3378 16.9885 0.806613 39.2305 -1.48071 0.490757 144.858 40.4002 84.579 -115.214 -16.412 -2.17841 102.223 -21.1322 1.43044 27.9271 -0.268132 0.818461 1.64935 16.7204 -92.6624 -6.55034 2.42561 -4.79686 -18.2282 2.21241 -4.89866 -40.7319 3.75413 -3.84804 -20.7193 3.75414 -3.84802 72.781 -32.9045 -136.519 -25.1042 -12.3505 -46.9844 9.1055 -43.9932 -4.37494 -43.7109 -8.31409 11.4706 -92.2392 -27.9719 68.2392 1.61394 8.35981 -77.2592 1.8707 49.9024 -6.91175 17.8564 3.20983 13.9624 33.0847 -6.21001 -1.86235 -3.91066 -5.0555 -2.36367 
-254.357 55.4288 -234.067 116.251 -39.6915 126.082 152.424 60.068 159.164 -124.029 20.5375 10.6703 89.2302 16.689 0.590947 39.3267 -1.50695 0.520023 144.26 41.3576 85.9887 -115.449 -15.6984 -2.17069 102.17 -20.8147 1.73823 27.5431 -0.32 1.01841 1.67466 16.6317 -92.6798 -6.37198 2.46728 -4.83196 -18.05 2.25248 -4.93557 -40.5536 3.80439 -3.86901 -20.541 3.80441 -3.86903 72.9683 -32.801 -136.282 -24.5214 -12.0256 -47.3252 9.06637 -44.571 -4.1083 -43.3976 -8.30608 11.5148 -92.1605 -27.71 68.2803 1.31415 8.49238 -76.9695 2.55099 49.6706 -7.51036 17.5456 3.15309 13.9604 32.854 -5.67637 -1.58311 -3.7039 -4.67329 -2.60242 
-254.605 55.1447 -234.065 114.983 -40.2253 125.579 149.646 60.7256 161.487 -124.089 20.1192 10.5565 89.3642 16.4335 0.290592 39.219 -1.59677 0.70291 144.019 42.163 88.1435 -115.836 -13.6675 -2.11852 103.153 -20.9846 1.52616 27.2979 -0.374298 1.19333 1.72554 16.5519 -92.7088 -6.21095 2.55603 -4.88231 -17.889 2.33895 -4.98975 -40.3934 3.90419 -3.8904 -20.3808 3.90417 -3.89041 73.1248 -32.836 -135.997 -24.6793 -11.7396 -47.8653 9.53303 -44.291 -3.15086 -44.0822 -8.26616 11.0671 -92.1506 -28.2809 68.5405 2.19906 8.12713 -77.3235 1.50936 48.1828 -6.92639 21.6946 4.03064 14.7899 33.6292 -5.49272 -1.41773 -4.0717 -4.54361 -2.71396 
-254.79 54.727 -234.249 113.241 -41.0815 124.94 145.641 61.6729 164.866 -124.39 19.4164 10.3791 89.237 15.9542 -0.337063 39.197 -1.85999 1.18386 142.732 43.8692 90.3843 -116.156 -13.4527 -2.13601 102.296 -20.3273 1.79416 28.6817 -0.261964 0.633954 1.78475 16.4032 -92.7293 -5.91186 2.6616 -4.92073 -17.5898 2.44272 -5.03278 -40.0957 4.01639 -3.89535 -20.0831 4.01638 -3.89535 73.1885 -32.6604 -136.015 -25.4812 -12.1177 -48.4388 10.3223 -43.3289 -2.36715 -43.8098 -8.04385 10.7525 -92.0418 -28.3012 68.7574 1.99253 8.17126 -77.3528 0.941407 46.9501 -6.26377 24.2842 4.3991 14.4174 33.8231 -5.22754 -1.18091 -4.02713 -4.38773 -2.91134 
-254.958 54.2816 -234.454 111.388 -42.1099 123.968 141.874 62.8123 168.184 -124.698 18.8306 10.1957 89.3036 15.7263 -0.404096 39.1647 -1.82988 1.13478 141.525 45.7351 92.64 -116.655 -12.8025 -2.14148 102.46 -20.236 1.68941 28.1031 -0.51196 1.34175 1.86199 16.2454 -92.7172 -5.59373 2.81284 -4.8923 -17.2713 2.59507 -5.011 -39.7814 4.15215 -3.82266 -19.7688 4.15214 -3.82266 73.1289 -32.8443 -135.984 -25.9405 -12.2376 -48.1955 9.77858 -43.2092 -2.99101 -44.6761 -8.23402 10.8621 -91.9991 -28.586 68.9576 2.83261 8.02034 -77.806 0.693996 46.9806 -6.32305 23.6011 4.29638 14.4875 34.4693 -5.26758 -1.23482 -4.19436 -4.38761 -2.88172 
-255.133 53.7274 -234.636 109.679 -43.0665 123.077 137.526 63.7431 172.183 -125.189 18.3196 10.0109 89.0762 15.2974 -0.712667 39.2299 -1.9156 1.27895 140.245 47.6806 94.8007 -117.23 -12.4156 -2.17282 102.06 -19.6983 2.22252 27.5943 -0.233971 0.81577 1.91229 16.1135 -92.7082 -5.32803 2.911 -4.87487 -17.0053 2.69391 -4.99792 -39.5182 4.24055 -3.77646 -19.5056 4.24055 -3.77646 73.1046 -32.7971 -136.058 -25.8925 -12.028 -47.9083 8.496 -43.6348 -3.60512 -43.2031 -7.86528 10.5241 -92.0771 -28.996 68.9761 3.08394 7.80233 -77.76 1.08325 47.1782 -6.76707 23.5618 4.24593 14.3034 34.6387 -5.16457 -0.983488 -3.88426 -4.40115 -3.08974 
-255.298 53.201 -234.887 107.439 -44.3108 121.877 132.281 64.8515 177.222 -125.574 17.8219 9.8333 89.0117 14.95 -1.04006 39.2835 -2.00407 1.43052 138.4 49.8903 97.6521 -117.798 -12.0619 -2.20568 101.752 -19.2073 2.63125 28.9823 0.312933 -0.787218 1.98185 15.9174 -92.6641 -4.93364 3.05658 -4.79132 -16.6103 2.84302 -4.92085 -39.1287 4.35435 -3.65282 -19.1161 4.35433 -3.65281 73.1925 -32.7716 -135.93 -25.8102 -12.1056 -47.939 11.2888 -44.76 -5.58388 -45.6366 -9.82536 14.4937 -91.7535 -28.1806 69.2641 2.27369 7.93376 -77.4837 2.03426 47.3741 -7.50179 23.0988 4.24165 14.6299 34.6564 -5.24306 -1.47986 -2.9227 -4.28566 -2.68604 
